{
  "asset": {
    "generator": "glTF-Transform v3.10.1",
    "version": "2.0"
  },
  "accessors": [
    {
      "type": "VEC3",
      "componentType": 5126,
      "count": 952,
      "max": [
        0.23580394685268402,
        0.33619487285614014,
        0.23580391705036163
      ],
      "min": [
        -0.23580394685268402,
        0.00005296462768455967,
        -0.23580394685268402
      ],
      "bufferView": 0,
      "byteOffset": 0
    },
    {
      "type": "VEC3",
      "componentType": 5126,
      "count": 952,
      "bufferView": 0,
      "byteOffset": 12
    },
    {
      "type": "VEC2",
      "componentType": 5126,
      "count": 952,
      "bufferView": 0,
      "byteOffset": 24
    },
    {
      "type": "VEC3",
      "componentType": 5126,
      "count": 2562,
      "max": [
        0.30740082263946533,
        0.5348553657531738,
        0.22219569981098175
      ],
      "min": [
        -0.3937562108039856,
        -0.09663186967372894,
        -0.4193420112133026
      ],
      "bufferView": 1,
      "byteOffset": 0
    },
    {
      "type": "VEC3",
      "componentType": 5126,
      "count": 2562,
      "bufferView": 1,
      "byteOffset": 12
    },
    {
      "type": "VEC2",
      "componentType": 5126,
      "count": 2562,
      "bufferView": 1,
      "byteOffset": 24
    },
    {
      "type": "VEC3",
      "componentType": 5126,
      "count": 14371,
      "max": [
        0.3351912200450897,
        0.02323196455836296,
        0.33649539947509766
      ],
      "min": [
        -0.07898939400911331,
        -0.020643368363380432,
        -0.0743584930896759
      ],
      "bufferView": 2,
      "byteOffset": 0
    },
    {
      "type": "VEC3",
      "componentType": 5126,
      "count": 14371,
      "bufferView": 2,
      "byteOffset": 12
    },
    {
      "type": "VEC2",
      "componentType": 5126,
      "count": 14371,
      "bufferView": 2,
      "byteOffset": 24
    },
    {
      "type": "SCALAR",
      "componentType": 5123,
      "count": 5040,
      "bufferView": 3,
      "byteOffset": 0
    },
    {
      "type": "SCALAR",
      "componentType": 5123,
      "count": 8310,
      "bufferView": 3,
      "byteOffset": 10080
    },
    {
      "type": "SCALAR",
      "componentType": 5123,
      "count": 57102,
      "bufferView": 3,
      "byteOffset": 26700
    }
  ],
  "bufferViews": [
    {
      "buffer": 0,
      "byteOffset": 0,
      "byteLength": 30464,
      "byteStride": 32,
      "target": 34962
    },
    {
      "buffer": 0,
      "byteOffset": 30464,
      "byteLength": 81984,
      "byteStride": 32,
      "target": 34962
    },
    {
      "buffer": 0,
      "byteOffset": 112448,
      "byteLength": 459872,
      "byteStride": 32,
      "target": 34962
    },
    {
      "buffer": 0,
      "byteOffset": 572320,
      "byteLength": 140904,
      "target": 34963
    }
  ],
  "samplers": [
    {
      "magFilter": 9729,
      "minFilter": 9987,
      "wrapS": 10497,
      "wrapT": 10497
    }
  ],
  "textures": [
    {
      "source": 1,
      "sampler": 0
    },
    {
      "source": 0,
      "sampler": 0
    },
    {
      "source": 2,
      "sampler": 0
    },
    {
      "source": 4,
      "sampler": 0
    },
    {
      "source": 3,
      "sampler": 0
    },
    {
      "source": 5,
      "sampler": 0
    }
  ],
  "images": [
    {
      "name": "potted_plant_02_pot_nor_gl",
      "mimeType": "image/jpeg",
      "uri": "textures/potted_plant_02_pot_nor_gl_1k.jpg"
    },
    {
      "name": "potted_plant_02_pot_diff",
      "mimeType": "image/jpeg",
      "uri": "textures/potted_plant_02_pot_diff_1k.jpg"
    },
    {
      "name": "potted_plant_02_pot_rough",
      "mimeType": "image/jpeg",
      "uri": "textures/potted_plant_02_pot_rough_1k.jpg"
    },
    {
      "name": "potted_plant_02_leaves_nor_gl",
      "mimeType": "image/jpeg",
      "uri": "textures/potted_plant_02_leaves_nor_gl_1k.jpg"
    },
    {
      "name": "potted_plant_02_leaves_diff",
      "mimeType": "image/jpeg",
      "uri": "textures/potted_plant_02_leaves_diff_1k.jpg"
    },
    {
      "name": "potted_plant_02_leaves_rough",
      "mimeType": "image/jpeg",
      "uri": "textures/potted_plant_02_leaves_rough_1k.jpg"
    }
  ],
  "buffers": [
    {
      "uri": "potted_plant_02.bin",
      "byteLength": 713224
    }
  ],
  "materials": [
    {
      "name": "potted_plant_02_pot",
      "doubleSided": true,
      "pbrMetallicRoughness": {
        "metallicFactor": 0,
        "baseColorTexture": {
          "index": 0
        },
        "metallicRoughnessTexture": {
          "index": 2
        }
      },
      "normalTexture": {
        "index": 1
      }
    },
    {
      "name": "potted_plant_02_leaves",
      "alphaMode": "MASK",
      "alphaCutoff": 0.5,
      "doubleSided": true,
      "pbrMetallicRoughness": {
        "metallicFactor": 0,
        "baseColorTexture": {
          "index": 3
        },
        "metallicRoughnessTexture": {
          "index": 5
        }
      },
      "normalTexture": {
        "index": 4
      }
    }
  ],
  "meshes": [
    {
      "name": "Circle",
      "primitives": [
        {
          "attributes": {
            "POSITION": 0,
            "NORMAL": 1,
            "TEXCOORD_0": 2
          },
          "mode": 4,
          "material": 0,
          "indices": 9
        }
      ]
    },
    {
      "name": "Circle.001",
      "primitives": [
        {
          "attributes": {
            "POSITION": 3,
            "NORMAL": 4,
            "TEXCOORD_0": 5
          },
          "mode": 4,
          "material": 1,
          "indices": 10
        }
      ]
    },
    {
      "name": "low.008",
      "primitives": [
        {
          "attributes": {
            "POSITION": 6,
            "NORMAL": 7,
            "TEXCOORD_0": 8
          },
          "mode": 4,
          "material": 0,
          "indices": 11
        }
      ]
    }
  ],
  "nodes": [
    {
      "name": "potted_plant_02_pot",
      "mesh": 0
    },
    {
      "name": "potted_plant_02_leaves",
      "translation": [
        -0.0029038283973932266,
        0.30528968572616577,
        0.0006859108689241111
      ],
      "mesh": 1
    },
    {
      "name": "potted_plant_02_dirt",
      "translation": [
        -0.12862031161785126,
        0.31752803921699524,
        -0.13355804979801178
      ],
      "mesh": 2
    }
  ],
  "scenes": [
    {
      "name": "Scene",
      "nodes": [
        0,
        1,
        2
      ]
    }
  ],
  "scene": 0
}