{
  "asset": {
    "generator": "glTF-Transform v3.10.1",
    "version": "2.0"
  },
  "accessors": [
    {
      "type": "VEC3",
      "componentType": 5126,
      "count": 5580,
      "max": [
        0.7705622315406799,
        1.0565910339355469,
        0.5094195008277893
      ],
      "min": [
        -0.6708963513374329,
        0.004307919647544622,
        -0.20712579786777496
      ],
      "bufferView": 0,
      "byteOffset": 0
    },
    {
      "type": "VEC3",
      "componentType": 5126,
      "count": 5580,
      "bufferView": 0,
      "byteOffset": 12
    },
    {
      "type": "VEC2",
      "componentType": 5126,
      "count": 5580,
      "bufferView": 0,
      "byteOffset": 24
    },
    {
      "type": "VEC3",
      "componentType": 5126,
      "count": 8377,
      "max": [
        0.6110244393348694,
        1.721980333328247,
        0.5157865881919861
      ],
      "min": [
        -1.397074580192566,
        0.17277592420578003,
        -0.5575034618377686
      ],
      "bufferView": 1,
      "byteOffset": 0
    },
    {
      "type": "VEC3",
      "componentType": 5126,
      "count": 8377,
      "bufferView": 1,
      "byteOffset": 12
    },
    {
      "type": "VEC2",
      "componentType": 5126,
      "count": 8377,
      "bufferView": 1,
      "byteOffset": 24
    },
    {
      "type": "VEC3",
      "componentType": 5126,
      "count": 1130,
      "max": [
        0.6225864291191101,
        1.1751478910446167,
        0.4638267457485199
      ],
      "min": [
        0.20148180425167084,
        1.0557500123977661,
        -0.11585871875286102
      ],
      "bufferView": 2,
      "byteOffset": 0
    },
    {
      "type": "VEC3",
      "componentType": 5126,
      "count": 1130,
      "bufferView": 2,
      "byteOffset": 12
    },
    {
      "type": "VEC2",
      "componentType": 5126,
      "count": 1130,
      "bufferView": 2,
      "byteOffset": 24
    },
    {
      "type": "SCALAR",
      "componentType": 5123,
      "count": 17304,
      "bufferView": 3,
      "byteOffset": 0
    },
    {
      "type": "SCALAR",
      "componentType": 5123,
      "count": 30471,
      "bufferView": 3,
      "byteOffset": 34608
    },
    {
      "type": "SCALAR",
      "componentType": 5123,
      "count": 5160,
      "bufferView": 3,
      "byteOffset": 95552
    }
  ],
  "bufferViews": [
    {
      "buffer": 0,
      "byteOffset": 0,
      "byteLength": 178560,
      "byteStride": 32,
      "target": 34962
    },
    {
      "buffer": 0,
      "byteOffset": 178560,
      "byteLength": 268064,
      "byteStride": 32,
      "target": 34962
    },
    {
      "buffer": 0,
      "byteOffset": 446624,
      "byteLength": 36160,
      "byteStride": 32,
      "target": 34962
    },
    {
      "buffer": 0,
      "byteOffset": 482784,
      "byteLength": 105872,
      "target": 34963
    }
  ],
  "samplers": [
    {
      "magFilter": 9729,
      "minFilter": 9987,
      "wrapS": 10497,
      "wrapT": 10497
    }
  ],
  "textures": [
    {
      "source": 1,
      "sampler": 0
    },
    {
      "source": 0,
      "sampler": 0
    },
    {
      "source": 2,
      "sampler": 0
    },
    {
      "source": 4,
      "sampler": 0
    },
    {
      "source": 3,
      "sampler": 0
    },
    {
      "source": 5,
      "sampler": 0
    }
  ],
  "images": [
    {
      "name": "CoffeeCart_01_cart_nor_gl",
      "mimeType": "image/jpeg",
      "uri": "textures/CoffeeCart_01_cart_nor_gl_1k.jpg"
    },
    {
      "name": "CoffeeCart_01_cart_diff",
      "mimeType": "image/jpeg",
      "uri": "textures/CoffeeCart_01_cart_diff_1k.jpg"
    },
    {
      "name": "CoffeeCart_01_cart_metallic-CoffeeCart_01_cart_roughness",
      "mimeType": "image/jpeg",
      "uri": "textures/CoffeeCart_01_cart_arm_1k.jpg"
    },
    {
      "name": "CoffeeCart_01_props_nor_gl",
      "mimeType": "image/jpeg",
      "uri": "textures/CoffeeCart_01_props_nor_gl_1k.jpg"
    },
    {
      "name": "CoffeeCart_01_props_diff",
      "mimeType": "image/jpeg",
      "uri": "textures/CoffeeCart_01_props_diff_1k.jpg"
    },
    {
      "name": "CoffeeCart_01_props_metallic-CoffeeCart_01_props_roughness",
      "mimeType": "image/jpeg",
      "uri": "textures/CoffeeCart_01_props_arm_1k.jpg"
    }
  ],
  "buffers": [
    {
      "uri": "CoffeeCart_01.bin",
      "byteLength": 588656
    }
  ],
  "materials": [
    {
      "name": "CoffeeCart_01_cart",
      "doubleSided": true,
      "pbrMetallicRoughness": {
        "baseColorTexture": {
          "index": 0
        },
        "metallicRoughnessTexture": {
          "index": 2
        }
      },
      "normalTexture": {
        "index": 1
      }
    },
    {
      "name": "CoffeeCart_01_props",
      "doubleSided": true,
      "pbrMetallicRoughness": {
        "baseColorTexture": {
          "index": 3
        },
        "metallicRoughnessTexture": {
          "index": 5
        }
      },
      "normalTexture": {
        "index": 4
      }
    },
    {
      "name": "CoffeeCart_01_mugs",
      "doubleSided": true,
      "pbrMetallicRoughness": {
        "baseColorFactor": [
          0.800000011920929,
          0.800000011920929,
          0.800000011920929,
          1
        ],
        "roughnessFactor": 0.15454545617103577,
        "metallicFactor": 0
      }
    }
  ],
  "meshes": [
    {
      "name": "Bottom_Cart",
      "primitives": [
        {
          "attributes": {
            "POSITION": 0,
            "NORMAL": 1,
            "TEXCOORD_0": 2
          },
          "mode": 4,
          "material": 0,
          "indices": 9
        }
      ]
    },
    {
      "name": "Top_Cart",
      "primitives": [
        {
          "attributes": {
            "POSITION": 3,
            "NORMAL": 4,
            "TEXCOORD_0": 5
          },
          "mode": 4,
          "material": 1,
          "indices": 10
        }
      ]
    },
    {
      "name": "Mugs",
      "primitives": [
        {
          "attributes": {
            "POSITION": 6,
            "NORMAL": 7,
            "TEXCOORD_0": 8
          },
          "mode": 4,
          "material": 2,
          "indices": 11
        }
      ]
    }
  ],
  "nodes": [
    {
      "name": "CoffeeCart_01_cart",
      "mesh": 0
    },
    {
      "name": "CoffeeCart_01_props",
      "mesh": 1
    },
    {
      "name": "CoffeeCart_01_mugs",
      "mesh": 2
    }
  ],
  "scenes": [
    {
      "name": "Scene",
      "nodes": [
        0,
        1,
        2
      ]
    }
  ],
  "scene": 0
}